<?xml version="1.0" encoding="iso-8859-1"?>
<!-- Generator: Adobe Illustrator 19.0.0, SVG Export Plug-In . SVG Version: 6.00 Build 0)  -->
<svg xmlns="http://www.w3.org/2000/svg" xmlns:xlink="http://www.w3.org/1999/xlink" version="1.1" id="Layer_1" x="0px" y="0px" viewBox="0 0 512 512" style="enable-background:new 0 0 512 512;" xml:space="preserve" width="512px" height="512px">
<g>
	<g>
		<path d="M479.195,309.78L218.563,460.261v9.175c0,15.877-5.113,30.574-13.756,42.564h264.629c23.47,0,42.564-19.094,42.564-42.564    V351.202C512,331.091,497.975,314.205,479.195,309.78z" fill="#031313"/>
	</g>
</g>
<g>
	<g>
		<path d="M471.396,230.087l-43.926-76.124c-7.581-13.131-21.715-21.287-36.887-21.287c-4.159,0-8.284,0.638-12.248,1.835    L218.563,411.241v13.913L457.618,287.13c8.903-5.732,15.269-14.445,18.03-24.745C478.59,251.404,477.08,239.933,471.396,230.087z" fill="#031313"/>
	</g>
</g>
<g>
	<g>
		<path d="M351.52,95.165c-2.943-10.982-9.986-20.161-19.832-25.844l-76.045-43.908c-6.467-3.733-13.817-5.707-21.257-5.707    c-6.415,0-12.638,1.472-18.266,4.149c1.586,5.974,2.442,12.242,2.442,18.709v307.823l128.705-222.923    C352.952,117.618,354.463,106.148,351.52,95.165z" fill="#031313"/>
	</g>
</g>
<g>
	<g>
		<path d="M145.596,0H42.564C19.094,0,0,19.094,0,42.564v426.872C0,492.906,19.094,512,42.564,512h65.813h37.219    c23.47,0,42.564-19.094,42.564-42.564V42.564C188.161,19.094,169.066,0,145.596,0z M94.081,446.467    c-15.742,0-28.548-12.807-28.548-28.547s12.807-28.547,28.548-28.547c15.741,0,28.547,12.807,28.547,28.547    S109.821,446.467,94.081,446.467z" fill="#031313"/>
	</g>
</g>
<g>
</g>
<g>
</g>
<g>
</g>
<g>
</g>
<g>
</g>
<g>
</g>
<g>
</g>
<g>
</g>
<g>
</g>
<g>
</g>
<g>
</g>
<g>
</g>
<g>
</g>
<g>
</g>
<g>
</g>
</svg>
